# xmcd
#
# Track frame offsets: 
#        150
#        22199
#        37210
#        60779
#        80311
#        108149
#        130535
#        148325
#        172082
#        193396
#        214472
#
# Disc length: 3051 seconds
#
# Revision: 0
# Processed by: cddbd v1.5.2PL0 Copyright (c) Steve Scherf et al.
# Submitted via: ExactAudioCopy v1.0b3
#
DISCID=a30be90b
DTITLE=Tijuana Blues Band - Bluseando
DYEAR=1900
DGENRE=blues
TTITLE0=El Fracasado
TTITLE1=Quiero Decirte
TTITLE2=Fue En Serio
TTITLE3=Blues De La Tequila
TTITLE4=Entra Chasman
TTITLE5=Una Historia De Amor
TTITLE6=Con El Siete En La Mano
TTITLE7=Bom Bom
TTITLE8=Descalza Cenicienta
TTITLE9=Tomo Y Me Entrego
TTITLE10=Viruta
EXTD=
EXTT0=
EXTT1=
EXTT2=
EXTT3=
EXTT4=
EXTT5=
EXTT6=
EXTT7=
EXTT8=
EXTT9=
EXTT10=
PLAYORDER=
